<?xml version="1.0" standalone="no"?>
<svg xmlns:xlink="http://www.w3.org/1999/xlink" id="wave" style="transform:rotate(0deg); transition: 0.3s" viewBox="0 0 1440 120" version="1.1" xmlns="http://www.w3.org/2000/svg"><defs><linearGradient id="sw-gradient-0" x1="0" x2="0" y1="1" y2="0"><stop stop-color="rgba(85.803, 28.842, 116.486, 1)" offset="0%"/><stop stop-color="rgba(186.112, 11, 255, 1)" offset="100%"/></linearGradient></defs><path style="transform:translate(0, 0px); opacity:1" fill="url(#sw-gradient-0)" d="M0,12L72,24L144,96L216,24L288,36L360,48L432,96L504,108L576,24L648,96L720,96L792,0L864,12L936,60L1008,48L1080,36L1152,60L1224,60L1296,12L1368,0L1440,36L1512,96L1584,36L1656,12L1728,12L1728,120L1656,120L1584,120L1512,120L1440,120L1368,120L1296,120L1224,120L1152,120L1080,120L1008,120L936,120L864,120L792,120L720,120L648,120L576,120L504,120L432,120L360,120L288,120L216,120L144,120L72,120L0,120Z"/></svg>